# xmcd
#
# Track frame offsets:
# 150
# 10983
# 22263
# 33991
# 42670
# 56623
# 68989
# 81923
# 92262
# 104947
# 115454
# 127667
# 139291
# 149222
# 162952
# 172493
# 182298
# 195566
# 207795
# 217469
# 230434
# 242512
# 255116
# 266857
# 278718
# 289676
# 299407
# 313093
# 325526
# 338752
# 347192
#
# Disc length: 4761 seconds
#
#
# Revision: 0
# Processed by: cddbd v1.5.2PL0 Copyright (c) Steve Scherf et al.
# Submitted via: FreeRIP 2.96 
#
DISCID=ea12971f
DTITLE=rusty draper - no help wanted, disc 1
DYEAR=2009
DGENRE=country
TTITLE0=no help wanted
TTITLE1=my resistance is low
TTITLE2=gamblers guitar
TTITLE3=a little bit of western style
TTITLE4=if I had you
TTITLE5=the shifting, whispering sands
TTITLE6=coquette
TTITLE7=doctor, lawyer, indian chief
TTITLE8=ambraceable you
TTITLE9=big mamou
TTITLE10=georgia on my mind
TTITLE11=devil of a woman
TTITLE12=seventeen
TTITLE13=tangerine
TTITLE14=muskrat ramble
TTITLE15=wedding bells will soon be ringing
TTITLE16=release me
TTITLE17=judy
TTITLE18=knock on wood
TTITLE19=the workshop of the lord
TTITLE20=Im gonna move to the outsirts of town
TTITLE21=wabash cannonball
TTITLE22=the one I love
TTITLE23=small fry
TTITLE24=hong kong blues
TTITLE25=when two words collide
TTITLE26=when its sleepy time down south
TTITLE27=native dancer
TTITLE28=I will get by
TTITLE29=no huhu dont be mad
TTITLE30=in the cool cool cool of evening
EXTD=
EXTT0=
EXTT1=
EXTT2=
EXTT3=
EXTT4=
EXTT5=
EXTT6=
EXTT7=
EXTT8=
EXTT9=
EXTT10=
EXTT11=
EXTT12=
EXTT13=
EXTT14=
EXTT15=
EXTT16=
EXTT17=
EXTT18=
EXTT19=
EXTT20=
EXTT21=
EXTT22=
EXTT23=
EXTT24=
EXTT25=
EXTT26=
EXTT27=
EXTT28=
EXTT29=
EXTT30=
PLAYORDER=
